{"title":"Ghostbusters (1984) 720p MKV x264 AC3 BRrip [Pioneer]","uid":8222546,"size":1927049855,"categoryP":"video","categoryS":"hd___movies","magnet":"?xt=urn:btih:b9771b657cbda517b9b4afa0364e576f8fddcc84&amp;dn=Ghostbusters+%281984%29+720p+MKV+x264+AC3+BRrip+%5BPioneer%5D&amp;tr=udp%3A%2F%2Ftracker.openbittorrent.com%3A80&amp;tr=udp%3A%2F%2Fopen.demonii.com%3A1337&amp;tr=udp%3A%2F%2Ftracker.coppersurfer.tk%3A6969&amp;tr=udp%3A%2F%2Fexodus.desync.com%3A6969","seeders":3,"leechers":0,"uploader":"Pioneer47","files":-1,"time":1362508898,"description":"[IMG]http://stpicz.com/1830_ghostbusters_cover_u2ft.jpg[/IMG]\n\n\nBill Murray, Dan Aykroyd, Harold Ramis and Ernie Hudson star as a quartet of Manhattan-based paranormal investigators. When their government grants run out, the former three go into business as The Ghostbusters, later hiring Hudson on. Armed with electronic paraphernalia, the team is spectacularly successful, ridding The Big Apple of dozens of ghoulies, ghosties and long-legged beasties. Tight-lipped bureaucrat William Atherton regards the Ghostbusters as a bunch of charlatans, but is forced to eat his words when New York is besieged by an army of unfriendly spirits, conjured up by a long-dead Babylonian demon and channelled through beautiful cellist Sigourney Weaver and nerdish Rick Moranis.\n\nStarring: Ernie Hudson, Annie Potts, Bill Murray, Sigourney Weaver, Timothy Carhart, Rick Moranis, Dan Aykroyd, Harold Ramis\nDirector: Ivan Reitman\n\n &lt;a href=&quot;\nhttp://www.imdb.com/title/tt0087332/&quot; rel=&quot;nofollow&quot; target=&quot;_NEW&quot;&gt;\nhttp://www.imdb.com/title/tt0087332/&lt;/a&gt;\n\n\n &lt;a href=&quot;\nhttp://stpicz.com/7923_vlcsnap_2013_02_28_22h34m57s105_cinf.png&quot; rel=&quot;nofollow&quot; target=&quot;_NEW&quot;&gt;\nhttp://stpicz.com/7923_vlcsnap_2013_02_28_22h34m57s105_cinf.png&lt;/a&gt; &lt;a href=&quot;\nhttp://stpicz.com/5834_vlcsnap_2013_02_28_22h35m53s150_xac5.png&quot; rel=&quot;nofollow&quot; target=&quot;_NEW&quot;&gt;\nhttp://stpicz.com/5834_vlcsnap_2013_02_28_22h35m53s150_xac5.png&lt;/a&gt; &lt;a href=&quot;\nhttp://stpicz.com/4352_vlcsnap_2013_02_28_22h37m16s197_5ua7.png&quot; rel=&quot;nofollow&quot; target=&quot;_NEW&quot;&gt;\nhttp://stpicz.com/4352_vlcsnap_2013_02_28_22h37m16s197_5ua7.png&lt;/a&gt; &lt;a href=&quot;\nhttp://stpicz.com/7037_vlcsnap_2013_02_28_22h38m28s168_qtkj.png&quot; rel=&quot;nofollow&quot; target=&quot;_NEW&quot;&gt;\nhttp://stpicz.com/7037_vlcsnap_2013_02_28_22h38m28s168_qtkj.png&lt;/a&gt; &lt;a href=&quot;\nhttp://stpicz.com/4147_vlcsnap_2013_02_28_22h33m25s196_zi2c.png&quot; rel=&quot;nofollow&quot; target=&quot;_NEW&quot;&gt;\nhttp://stpicz.com/4147_vlcsnap_2013_02_28_22h33m25s196_zi2c.png&lt;/a&gt; &lt;a href=&quot;\nhttp://stpicz.com/9286_vlcsnap_2013_02_28_22h34m10s144_r0y3.png&quot; rel=&quot;nofollow&quot; target=&quot;_NEW&quot;&gt;\nhttp://stpicz.com/9286_vlcsnap_2013_02_28_22h34m10s144_r0y3.png&lt;/a&gt; &lt;a href=&quot;\nhttp://stpicz.com/5413_vlcsnap_2013_02_28_22h32m10s222_mb25.png&quot; rel=&quot;nofollow&quot; target=&quot;_NEW&quot;&gt;\nhttp://stpicz.com/5413_vlcsnap_2013_02_28_22h32m10s222_mb25.png&lt;/a&gt;\n\n\nGeneral\nUnique ID: 243126827749126704769324055278747423820 (0xB6E88616BF3D13099FA1665DF2B8944C)\nComplete name: D:Ghostbusters (1984) 720p MKV x264 AC3 BRrip [Pioneer].mkv\nFormat: Matroska\nFormat version: Version 2\nFile size: 1.79 GiB\nDuration: 1h 45mn\nOverall bit rate: 2 444 Kbps\nWriting application: HandBrake 0.9.8\nWriting library : libmkv 0.6.5\n\nVideo\nID: 1\nFormat: AVC\nFormat/Info: Advanced Video Codec\nFormat profile: &lt;a class=&quot;__cf_email__&quot; href=&quot;/cdn-cgi/l/email-protection&quot; data-cfemail=&quot;266e4f414e666a150817&quot;&gt;[email&amp;#160;protected]&lt;/a&gt;&lt;script cf-hash='f9e31' type=&quot;text/javascript&quot;&gt;\n/* &lt;![CDATA[ */!function(){try{var t=&quot;currentScript&quot;in document?document.currentScript:function(){for(var t=document.getElementsByTagName(&quot;script&quot;),e=t.length;e--;)if(t[e].getAttribute(&quot;cf-hash&quot;))return t[e]}();if(t&amp;&amp;t.previousSibling){var e,r,n,i,c=t.previousSibling,a=c.getAttribute(&quot;data-cfemail&quot;);if(a){for(e=&quot;&quot;,r=parseInt(a.substr(0,2),16),n=2;a.length-n;n+=2)i=parseInt(a.substr(n,2),16)^r,e+=String.fromCharCode(i);e=document.createTextNode(e),c.parentNode.replaceChild(e,c)}}}catch(u){}}();/* ]]&gt; */&lt;/script&gt;\nFormat settings, CABAC: Yes\nFormat settings, ReFrames: 5 frames\nCodec ID: V_MPEG4/ISO/AVC\nDuration: 1h 45mn\nBit rate: 1 800 Kbps\nWidth: 1 280 pixels\nHeight: 528 pixels\nDisplay aspect ratio: 2.40:1\nFrame rate mode: Constant\nFrame rate: 23.976 fps\nColor space: YUV\nChroma subsampling: 4:2:0\nBit depth: 8 bits\nScan type: Progressive\nBits/(Pixel*Frame): 0.111\nStream size: 1.29 GiB (72%)\nWriting library: x264 core 120\nLanguage: English\nDefault: Yes\nForced: No\nColor primaries: BT.709\nTransfer characteristics: BT.709\nMatrix coefficients: BT.709\n\nAudio\nID: 2\nFormat: AC-3\nFormat/Info: Audio Coding 3\nMode extension: CM (complete main)\nFormat settings, Endianness: Big\nCodec ID: A_AC3\nDuration: 1h 45mn\nBit rate mode: Constant\nBit rate: 640 Kbps\nChannel(s): 6 channels\nChannel positions: Front: L C R, Side: L R, LFE\nSampling rate: 48.0 KHz\nBit depth: 16 bits\nCompression mode: Lossy\nStream size: 481 MiB (26%)\nLanguage: English\nDefault: Yes\nForced: No","torrent":{"xt":"urn:btih:b9771b657cbda517b9b4afa0364e576f8fddcc84","amp;dn":"Ghostbusters+%281984%29+720p+MKV+x264+AC3+BRrip+%5BPioneer%5D","amp;tr":["udp%3A%2F%2Ftracker.openbittorrent.com%3A80","udp%3A%2F%2Fopen.demonii.com%3A1337","udp%3A%2F%2Ftracker.coppersurfer.tk%3A6969","udp%3A%2F%2Fexodus.desync.com%3A6969"],"infoHash":"b9771b657cbda517b9b4afa0364e576f8fddcc84","infoHashBuffer":{"type":"Buffer","data":[185,119,27,101,124,189,165,23,185,180,175,160,54,78,87,111,143,221,204,132]},"announce":[],"urlList":[]}}